<?xml version="1.0" encoding="UTF-8" standalone="no"?>
<!DOCTYPE svg PUBLIC "-//W3C//DTD SVG 1.1//EN" "http://www.w3.org/Graphics/SVG/1.1/DTD/svg11.dtd">
<svg width="100%" height="100%" viewBox="0 0 1920 1095" version="1.1" xmlns="http://www.w3.org/2000/svg" xmlns:xlink="http://www.w3.org/1999/xlink" xml:space="preserve" xmlns:serif="http://www.serif.com/" style="fill-rule:evenodd;clip-rule:evenodd;stroke-linejoin:round;stroke-miterlimit:2;">
    <g transform="matrix(1,0,0,1,-2157.16,-1321.75)">
        <g transform="matrix(1.77778,0,0,1.01335,-2422.99,1321.75)">
            <rect id="Artboard3" x="2576.33" y="0" width="1080" height="1080" style="fill:rgb(231,245,255);"/>
            <clipPath id="_clip1">
                <rect id="Artboard31" serif:id="Artboard3" x="2576.33" y="0" width="1080" height="1080"/>
            </clipPath>
            <g clip-path="url(#_clip1)">
                <g transform="matrix(0.674352,0,0,1.18305,941.195,-1660.14)">
                    <circle cx="2452.1" cy="1731.22" r="81.956" style="fill:rgb(250,225,0);"/>
                </g>
                <g transform="matrix(0.355742,0,0,0.624098,2591.84,-738.268)">
                    <circle cx="2452.1" cy="1731.22" r="81.956" style="fill:rgb(212,15,125);"/>
                </g>
                <g transform="matrix(0.927366,0,0,1.62693,1367.74,-1990.7)">
                    <circle cx="2452.1" cy="1731.22" r="81.956" style="fill:url(#_Linear2);"/>
                </g>
                <g transform="matrix(0.435352,0,0,0.795165,1595.6,-581.717)">
                    <circle cx="2452.1" cy="1731.22" r="81.956" style="fill:rgb(104,196,214);"/>
                </g>
            </g>
        </g>
    </g>
    <defs>
        <linearGradient id="_Linear2" x1="0" y1="0" x2="1" y2="0" gradientUnits="userSpaceOnUse" gradientTransform="matrix(163.912,0,0,163.912,2370.14,1731.22)"><stop offset="0" style="stop-color:rgb(205,172,252);stop-opacity:1"/><stop offset="1" style="stop-color:rgb(203,170,252);stop-opacity:1"/></linearGradient>
    </defs>
</svg>
