<svg width="1728" height="830" viewBox="0 0 1728 830" fill="none" xmlns="http://www.w3.org/2000/svg">
<rect width="1728" height="830" fill="url(#paint0_linear_34_2)"/>
<path d="M290.92 226V227H292.432L291.84 225.608L290.92 226ZM271.6 226L270.674 226.377L270.928 227H271.6V226ZM263.92 207.16L264.846 206.783L264.592 206.16H263.92V207.16ZM228.4 207.16V206.16H227.728L227.474 206.783L228.4 207.16ZM220.72 226V227H221.392L221.646 226.377L220.72 226ZM201.88 226L200.96 225.608L200.368 227H201.88V226ZM237.88 141.4V140.4H237.219L236.96 141.008L237.88 141.4ZM254.92 141.4L255.84 141.008L255.581 140.4H254.92V141.4ZM257.32 190.84V191.84H258.81L258.245 190.461L257.32 190.84ZM246.16 163.6L247.085 163.221L246.16 160.962L245.235 163.221L246.16 163.6ZM235 190.84L234.075 190.461L233.51 191.84H235V190.84ZM290.92 225H271.6V227H290.92V225ZM272.526 225.623L264.846 206.783L262.994 207.537L270.674 226.377L272.526 225.623ZM263.92 206.16H228.4V208.16H263.92V206.16ZM227.474 206.783L219.794 225.623L221.646 226.377L229.326 207.537L227.474 206.783ZM220.72 225H201.88V227H220.72V225ZM202.8 226.392L238.8 141.792L236.96 141.008L200.96 225.608L202.8 226.392ZM237.88 142.4H254.92V140.4H237.88V142.4ZM254 141.792L290 226.392L291.84 225.608L255.84 141.008L254 141.792ZM258.245 190.461L247.085 163.221L245.235 163.979L256.395 191.219L258.245 190.461ZM245.235 163.221L234.075 190.461L235.925 191.219L247.085 163.979L245.235 163.221ZM235 191.84H257.32V189.84H235V191.84ZM355.005 208.24L354.077 207.866L354.074 207.875L355.005 208.24ZM348.525 218.68L347.798 217.993L347.797 217.994L348.525 218.68ZM339.285 225.04L339.663 225.966L339.285 225.04ZM316.125 224.32L315.601 225.172L315.61 225.177L316.125 224.32ZM308.205 217.6L308.969 216.955L307.205 214.864V217.6H308.205ZM308.205 226V227H309.205V226H308.205ZM289.965 226H288.965V227H289.965V226ZM289.965 138.4V137.4H288.965V138.4H289.965ZM308.205 138.4H309.205V137.4H308.205V138.4ZM308.205 170.92H307.205V173.963L309.01 171.513L308.205 170.92ZM316.245 163.48L316.769 164.332L316.775 164.328L316.245 163.48ZM339.165 162.64L338.786 163.566L339.165 162.64ZM348.525 169.12L347.798 169.807L347.807 169.817L348.525 169.12ZM355.005 179.56L354.071 179.919L354.076 179.93L354.08 179.941L355.005 179.56ZM337.965 186.52L337.023 186.856L337.03 186.877L337.039 186.897L337.965 186.52ZM334.605 180.88L333.861 181.549L333.87 181.558L333.879 181.568L334.605 180.88ZM329.565 177.28L329.133 178.182L329.156 178.193L329.18 178.203L329.565 177.28ZM317.445 177.28L317.843 178.197L317.852 178.193L317.861 178.189L317.445 177.28ZM312.525 180.88L311.781 180.211L311.779 180.213L312.525 180.88ZM309.165 186.52L308.234 186.154L308.23 186.163L308.227 186.173L309.165 186.52ZM309.165 201.28L308.223 201.616L308.23 201.637L308.239 201.657L309.165 201.28ZM312.525 206.92L311.763 207.568L311.78 207.588L311.799 207.608L312.525 206.92ZM317.445 210.52L317.013 211.422L317.036 211.433L317.06 211.443L317.445 210.52ZM329.565 210.52L329.963 211.437L329.972 211.433L329.981 211.429L329.565 210.52ZM334.605 206.92L335.331 207.608L335.339 207.598L335.348 207.589L334.605 206.92ZM337.965 201.28L337.039 200.903L337.033 200.918L337.027 200.933L337.965 201.28ZM356.525 193.96C356.525 199.216 355.701 203.845 354.077 207.866L355.932 208.614C357.668 204.315 358.525 199.424 358.525 193.96H356.525ZM354.074 207.875C352.516 211.848 350.421 215.216 347.798 217.993L349.252 219.367C352.069 216.384 354.294 212.792 355.936 208.605L354.074 207.875ZM347.797 217.994C345.254 220.691 342.292 222.729 338.906 224.114L339.663 225.966C343.317 224.471 346.516 222.269 349.252 219.366L347.797 217.994ZM338.906 224.114C335.507 225.505 331.956 226.2 328.245 226.2V228.2C332.213 228.2 336.022 227.455 339.663 225.966L338.906 224.114ZM328.245 226.2C323.491 226.2 319.643 225.265 316.639 223.463L315.61 225.177C319.006 227.215 323.238 228.2 328.245 228.2V226.2ZM316.649 223.468C313.611 221.599 311.054 219.427 308.969 216.955L307.44 218.245C309.675 220.893 312.398 223.201 315.601 225.172L316.649 223.468ZM307.205 217.6V226H309.205V217.6H307.205ZM308.205 225H289.965V227H308.205V225ZM290.965 226V138.4H288.965V226H290.965ZM289.965 139.4H308.205V137.4H289.965V139.4ZM307.205 138.4V170.92H309.205V138.4H307.205ZM309.01 171.513C311.176 168.573 313.762 166.182 316.769 164.332L315.721 162.628C312.488 164.618 309.713 167.187 307.4 170.327L309.01 171.513ZM316.775 164.328C319.778 162.451 323.582 161.48 328.245 161.48V159.48C323.308 159.48 319.112 160.509 315.715 162.632L316.775 164.328ZM328.245 161.48C331.873 161.48 335.385 162.174 338.786 163.566L339.543 161.714C335.905 160.226 332.136 159.48 328.245 159.48V161.48ZM338.786 163.566C342.169 164.949 345.171 167.026 347.798 169.807L349.252 168.433C346.438 165.454 343.201 163.211 339.543 161.714L338.786 163.566ZM347.807 169.817C350.421 172.507 352.513 175.867 354.071 179.919L355.938 179.201C354.296 174.933 352.068 171.333 349.242 168.423L347.807 169.817ZM354.08 179.941C355.701 183.877 356.525 188.463 356.525 193.72H358.525C358.525 188.257 357.669 183.403 355.929 179.179L354.08 179.941ZM356.525 193.72V193.96H358.525V193.72H356.525ZM340.285 193.96V193.72H338.285V193.96H340.285ZM340.285 193.72C340.285 190.968 339.826 188.437 338.891 186.143L337.039 186.897C337.864 188.923 338.285 191.192 338.285 193.72H340.285ZM338.906 186.184C338.066 183.831 336.878 181.826 335.331 180.192L333.879 181.568C335.211 182.974 336.263 184.729 337.023 186.856L338.906 186.184ZM335.348 180.211C333.812 178.505 332.011 177.216 329.949 176.357L329.18 178.203C330.958 178.944 332.517 180.055 333.861 181.549L335.348 180.211ZM329.996 176.378C328.014 175.43 325.865 174.96 323.565 174.96V176.96C325.584 176.96 327.436 177.37 329.133 178.182L329.996 176.378ZM323.565 174.96C321.264 174.96 319.082 175.43 317.028 176.371L317.861 178.189C319.648 177.37 321.545 176.96 323.565 176.96V174.96ZM317.046 176.363C315.065 177.224 313.31 178.513 311.781 180.211L313.268 181.549C314.619 180.047 316.144 178.936 317.843 178.197L317.046 176.363ZM311.779 180.213C310.327 181.836 309.15 183.823 308.234 186.154L310.095 186.886C310.94 184.737 312.002 182.964 313.27 181.547L311.779 180.213ZM308.227 186.173C307.38 188.459 306.965 190.979 306.965 193.72H308.965C308.965 191.181 309.349 188.901 310.102 186.867L308.227 186.173ZM306.965 193.72V193.96H308.965V193.72H306.965ZM306.965 193.96C306.965 196.702 307.38 199.257 308.223 201.616L310.106 200.944C309.349 198.823 308.965 196.498 308.965 193.96H306.965ZM308.239 201.657C309.154 203.905 310.327 205.878 311.763 207.568L313.287 206.272C312.002 204.762 310.935 202.975 310.091 200.903L308.239 201.657ZM311.799 207.608C313.321 209.214 315.06 210.488 317.013 211.422L317.876 209.618C316.15 208.792 314.609 207.666 313.251 206.232L311.799 207.608ZM317.06 211.443C319.107 212.296 321.278 212.72 323.565 212.72V210.72C321.532 210.72 319.623 210.344 317.829 209.597L317.06 211.443ZM323.565 212.72C325.851 212.72 327.988 212.296 329.963 211.437L329.166 209.603C327.461 210.344 325.598 210.72 323.565 210.72V212.72ZM329.981 211.429C332.017 210.496 333.802 209.221 335.331 207.608L333.879 206.232C332.528 207.659 330.953 208.784 329.148 209.611L329.981 211.429ZM335.348 207.589C336.878 205.889 338.062 203.897 338.902 201.627L337.027 200.933C336.268 202.983 335.211 204.751 333.861 206.251L335.348 207.589ZM338.891 201.657C339.827 199.359 340.285 196.788 340.285 193.96H338.285C338.285 196.572 337.862 198.881 337.039 200.903L338.891 201.657ZM422.781 207.04L423.697 207.443L423.699 207.436L422.781 207.04ZM415.461 217.6L416.159 218.316L415.461 217.6ZM404.421 224.8L404.805 225.724L404.421 224.8ZM376.701 224.92L376.318 225.844L376.325 225.847L376.333 225.85L376.701 224.92ZM365.661 217.84L364.954 218.547L364.963 218.556L364.973 218.565L365.661 217.84ZM358.461 207.28L357.543 207.676L357.546 207.683L358.461 207.28ZM358.461 181L359.377 181.403L359.379 181.396L358.461 181ZM365.781 170.32L366.479 171.036L365.781 170.32ZM376.821 163.12L376.438 162.196L376.438 162.196L376.821 163.12ZM404.541 163.12L404.158 164.044L404.165 164.047L404.173 164.05L404.541 163.12ZM415.461 170.2L414.754 170.907L414.763 170.916L414.773 170.925L415.461 170.2ZM422.781 180.76L421.863 181.156L421.866 181.163L422.781 180.76ZM406.221 187.24L405.283 187.587L405.288 187.599L406.221 187.24ZM402.741 181.6L402 182.271L402.008 182.28L402.016 182.289L402.741 181.6ZM397.341 177.64L396.922 178.548L397.341 177.64ZM383.421 177.64L383.824 178.555L383.832 178.552L383.84 178.548L383.421 177.64ZM378.261 181.36L379.005 182.029L378.261 181.36ZM374.901 187L373.964 186.653L373.96 186.663L373.956 186.673L374.901 187ZM375.021 200.8L374.083 201.147L374.088 201.159L375.021 200.8ZM378.501 206.44L377.76 207.111L377.768 207.12L377.776 207.129L378.501 206.44ZM383.781 210.28L383.349 211.182L383.355 211.185L383.362 211.188L383.781 210.28ZM397.701 210.4L398.104 211.315L398.112 211.312L398.12 211.308L397.701 210.4ZM402.981 206.56L403.725 207.229L402.981 206.56ZM406.221 201.04L405.284 200.693L405.28 200.703L405.276 200.713L406.221 201.04ZM424.421 193.96C424.421 198.47 423.567 202.695 421.863 206.644L423.699 207.436C425.516 203.225 426.421 198.73 426.421 193.96H424.421ZM421.866 206.637C420.157 210.52 417.791 213.934 414.763 216.884L416.159 218.316C419.371 215.186 421.885 211.56 423.697 207.443L421.866 206.637ZM414.763 216.884C411.739 219.831 408.167 222.162 404.038 223.876L404.805 225.724C409.155 223.918 412.944 221.449 416.159 218.316L414.763 216.884ZM404.038 223.876C399.931 225.581 395.423 226.44 390.501 226.44V228.44C395.66 228.44 400.432 227.539 404.805 225.724L404.038 223.876ZM390.501 226.44C385.656 226.44 381.182 225.62 377.07 223.99L376.333 225.85C380.7 227.58 385.426 228.44 390.501 228.44V226.44ZM377.085 223.996C372.95 222.28 369.375 219.985 366.35 217.115L364.973 218.565C368.187 221.615 371.973 224.04 376.318 225.844L377.085 223.996ZM366.368 217.133C363.417 214.182 361.087 210.766 359.377 206.877L357.546 207.683C359.355 211.794 361.825 215.418 364.954 218.547L366.368 217.133ZM359.379 206.884C357.676 202.935 356.821 198.71 356.821 194.2H354.821C354.821 198.97 355.727 203.465 357.543 207.676L359.379 206.884ZM356.821 194.2V193.96H354.821V194.2H356.821ZM356.821 193.96C356.821 189.45 357.676 185.268 359.377 181.403L357.546 180.597C355.727 184.732 354.821 189.19 354.821 193.96H356.821ZM359.379 181.396C361.089 177.434 363.455 173.983 366.479 171.036L365.083 169.604C361.868 172.737 359.354 176.406 357.543 180.604L359.379 181.396ZM366.479 171.036C369.504 168.089 373.075 165.758 377.205 164.044L376.438 162.196C372.087 164.002 368.299 166.471 365.083 169.604L366.479 171.036ZM377.205 164.044C381.312 162.339 385.82 161.48 390.741 161.48V159.48C385.583 159.48 380.811 160.381 376.438 162.196L377.205 164.044ZM390.741 161.48C395.58 161.48 400.049 162.338 404.158 164.044L404.925 162.196C400.554 160.382 395.822 159.48 390.741 159.48V161.48ZM404.173 164.05C408.294 165.682 411.816 167.969 414.754 170.907L416.168 169.493C413.026 166.351 409.269 163.917 404.91 162.19L404.173 164.05ZM414.773 170.925C417.792 173.789 420.155 177.196 421.863 181.156L423.699 180.364C421.888 176.164 419.371 172.531 416.15 169.475L414.773 170.925ZM421.866 181.163C423.567 185.028 424.421 189.21 424.421 193.72H426.421C426.421 188.95 425.516 184.492 423.697 180.357L421.866 181.163ZM424.421 193.72V193.96H426.421V193.72H424.421ZM408.421 194.2V193.96H406.421V194.2H408.421ZM408.421 193.96C408.421 191.447 408.002 189.084 407.155 186.881L405.288 187.599C406.041 189.556 406.421 191.673 406.421 193.96H408.421ZM407.159 186.893C406.314 184.611 405.084 182.614 403.466 180.911L402.016 182.289C403.439 183.786 404.528 185.549 405.284 187.587L407.159 186.893ZM403.483 180.929C401.871 179.148 399.961 177.748 397.76 176.732L396.922 178.548C398.881 179.452 400.571 180.692 402 182.271L403.483 180.929ZM397.76 176.732C395.538 175.707 393.114 175.2 390.501 175.2V177.2C392.849 177.2 394.984 177.653 396.922 178.548L397.76 176.732ZM390.501 175.2C387.739 175.2 385.232 175.703 383.002 176.732L383.84 178.548C385.77 177.657 387.984 177.2 390.501 177.2V175.2ZM383.019 176.725C380.891 177.661 379.054 178.984 377.518 180.691L379.005 182.029C380.348 180.536 381.952 179.379 383.824 178.555L383.019 176.725ZM377.518 180.691C375.988 182.391 374.804 184.383 373.964 186.653L375.839 187.347C376.598 185.297 377.655 183.529 379.005 182.029L377.518 180.691ZM373.956 186.673C373.197 188.867 372.821 191.219 372.821 193.72H374.821C374.821 191.421 375.166 189.293 375.846 187.327L373.956 186.673ZM372.821 193.72V193.96H374.821V193.72H372.821ZM372.821 193.96C372.821 196.474 373.241 198.872 374.083 201.147L375.959 200.453C375.202 198.408 374.821 196.246 374.821 193.96H372.821ZM374.088 201.159C374.933 203.356 376.159 205.341 377.76 207.111L379.243 205.769C377.804 204.179 376.71 202.404 375.955 200.441L374.088 201.159ZM377.776 207.129C379.38 208.817 381.24 210.169 383.349 211.182L384.214 209.378C382.323 208.471 380.662 207.263 379.226 205.751L377.776 207.129ZM383.362 211.188C385.588 212.215 388.054 212.72 390.741 212.72V210.72C388.309 210.72 386.134 210.265 384.2 209.372L383.362 211.188ZM390.741 212.72C393.492 212.72 395.954 212.262 398.104 211.315L397.299 209.485C395.449 210.298 393.271 210.72 390.741 210.72V212.72ZM398.12 211.308C400.315 210.295 402.188 208.936 403.725 207.229L402.238 205.891C400.894 207.384 399.247 208.585 397.282 209.492L398.12 211.308ZM403.725 207.229C405.256 205.527 406.404 203.57 407.166 201.367L405.276 200.713C404.599 202.67 403.587 204.393 402.238 205.891L403.725 207.229ZM407.159 201.387C408.002 199.112 408.421 196.714 408.421 194.2H406.421C406.421 196.486 406.041 198.648 405.284 200.693L407.159 201.387ZM485.069 226V227H486.069V226H485.069ZM466.829 226H465.829V227H466.829V226ZM466.829 216.88H467.829V213.926L466.034 216.273L466.829 216.88ZM463.349 220.84L462.642 220.133L463.349 220.84ZM459.269 224.08L458.735 223.235L459.269 224.08ZM454.229 226.36L453.938 225.403L454.229 226.36ZM431.789 220.84L431.041 221.504L431.048 221.511L431.789 220.84ZM426.149 161.68V160.68H425.149V161.68H426.149ZM444.389 161.68H445.389V160.68H444.389V161.68ZM447.269 207.4L446.509 208.051L446.515 208.058L446.521 208.064L447.269 207.4ZM463.709 207.4L462.976 206.72L462.975 206.721L463.709 207.4ZM466.829 161.68V160.68H465.829V161.68H466.829ZM485.069 161.68H486.069V160.68H485.069V161.68ZM485.069 225H466.829V227H485.069V225ZM467.829 226V216.88H465.829V226H467.829ZM466.034 216.273C465.023 217.596 463.892 218.882 462.642 220.133L464.056 221.547C465.365 220.238 466.555 218.884 467.623 217.487L466.034 216.273ZM462.642 220.133C461.497 221.277 460.196 222.312 458.735 223.235L459.803 224.925C461.382 223.928 462.8 222.803 464.056 221.547L462.642 220.133ZM458.735 223.235C457.295 224.144 455.698 224.868 453.938 225.403L454.52 227.317C456.44 226.732 458.202 225.936 459.803 224.925L458.735 223.235ZM453.938 225.403C452.209 225.929 450.23 226.2 447.989 226.2V228.2C450.388 228.2 452.568 227.911 454.52 227.317L453.938 225.403ZM447.989 226.2C441.245 226.2 436.14 224.155 432.53 220.169L431.048 221.511C435.117 226.005 440.813 228.2 447.989 228.2V226.2ZM432.537 220.177C428.984 216.17 427.149 210.594 427.149 203.32H425.149C425.149 210.926 427.073 217.03 431.041 221.503L432.537 220.177ZM427.149 203.32V161.68H425.149V203.32H427.149ZM426.149 162.68H444.389V160.68H426.149V162.68ZM443.389 161.68V197.56H445.389V161.68H443.389ZM443.389 197.56C443.389 202.011 444.376 205.562 446.509 208.051L448.028 206.749C446.322 204.758 445.389 201.749 445.389 197.56H443.389ZM446.521 208.064C448.672 210.484 451.691 211.64 455.429 211.64V209.64C452.127 209.64 449.706 208.636 448.016 206.736L446.521 208.064ZM455.429 211.64C459.168 211.64 462.216 210.484 464.443 208.079L462.975 206.721C461.201 208.636 458.729 209.64 455.429 209.64V211.64ZM464.442 208.08C466.753 205.591 467.829 202.028 467.829 197.56H465.829C465.829 201.732 464.824 204.729 462.976 206.72L464.442 208.08ZM467.829 197.56V161.68H465.829V197.56H467.829ZM466.829 162.68H485.069V160.68H466.829V162.68ZM484.069 161.68V226H486.069V161.68H484.069ZM525.514 223.36L526.018 224.224L526.514 223.934V223.36H525.514ZM519.154 226L518.888 225.036L518.873 225.04L518.858 225.045L519.154 226ZM503.434 226.12L503.7 225.156L503.689 225.153L503.677 225.15L503.434 226.12ZM497.554 223L496.866 223.725L496.874 223.733L496.883 223.742L497.554 223ZM493.714 217.12L492.772 217.454L492.779 217.473L492.786 217.491L493.714 217.12ZM492.394 177.28H493.394V176.28H492.394V177.28ZM484.714 177.28H483.714V178.28H484.714V177.28ZM484.714 161.68V160.68H483.714V161.68H484.714ZM492.394 161.68V162.68H493.394V161.68H492.394ZM492.394 145.24V144.24H491.394V145.24H492.394ZM510.634 145.24H511.634V144.24H510.634V145.24ZM510.634 161.68H509.634V162.68H510.634V161.68ZM525.754 161.68H526.754V160.68H525.754V161.68ZM525.754 177.28V178.28H526.754V177.28H525.754ZM510.634 177.28V176.28H509.634V177.28H510.634ZM525.514 208.72H526.514V207.039L525.037 207.841L525.514 208.72ZM525.01 222.496C523.171 223.569 521.132 224.417 518.888 225.036L519.42 226.964C521.817 226.303 524.018 225.391 526.018 224.224L525.01 222.496ZM518.858 225.045C516.655 225.729 514.078 226.08 511.114 226.08V228.08C514.231 228.08 517.014 227.711 519.451 226.955L518.858 225.045ZM511.114 226.08C508.39 226.08 505.921 225.769 503.7 225.156L503.168 227.084C505.588 227.751 508.239 228.08 511.114 228.08V226.08ZM503.677 225.15C501.593 224.629 499.781 223.666 498.225 222.258L496.883 223.742C498.688 225.374 500.796 226.491 503.192 227.09L503.677 225.15ZM498.243 222.275C496.764 220.87 495.558 219.038 494.643 216.749L492.786 217.491C493.79 220.002 495.145 222.09 496.866 223.725L498.243 222.275ZM494.657 216.786C493.827 214.448 493.394 211.451 493.394 207.76H491.394C491.394 211.589 491.841 214.832 492.772 217.454L494.657 216.786ZM493.394 207.76V177.28H491.394V207.76H493.394ZM492.394 176.28H484.714V178.28H492.394V176.28ZM485.714 177.28V161.68H483.714V177.28H485.714ZM484.714 162.68H492.394V160.68H484.714V162.68ZM493.394 161.68V145.24H491.394V161.68H493.394ZM492.394 146.24H510.634V144.24H492.394V146.24ZM509.634 145.24V161.68H511.634V145.24H509.634ZM510.634 162.68H525.754V160.68H510.634V162.68ZM524.754 161.68V177.28H526.754V161.68H524.754ZM525.754 176.28H510.634V178.28H525.754V176.28ZM509.634 177.28V204.76H511.634V177.28H509.634ZM509.634 204.76C509.634 206.98 510.156 208.831 511.377 210.126C512.608 211.432 514.385 212 516.514 212V210C514.724 210 513.561 209.528 512.832 208.754C512.093 207.969 511.634 206.7 511.634 204.76H509.634ZM516.514 212C519.88 212 523.044 211.199 525.991 209.599L525.037 207.841C522.384 209.281 519.548 210 516.514 210V212ZM524.514 208.72V223.36H526.514V208.72H524.514ZM637.096 226V227H638.096V226H637.096ZM618.736 226H617.736V227H618.736V226ZM618.736 171.16H619.736V167.825L617.901 170.61L618.736 171.16ZM595.096 207.04V208.04H595.634L595.931 207.59L595.096 207.04ZM594.616 207.04L593.781 207.59L594.077 208.04H594.616V207.04ZM571.216 171.52L572.051 170.97L570.216 168.184V171.52H571.216ZM571.216 226V227H572.216V226H571.216ZM553.096 226H552.096V227H553.096V226ZM553.096 142V141H552.096V142H553.096ZM573.016 142L573.865 141.472L573.571 141H573.016V142ZM595.096 177.52L594.246 178.048L595.096 179.414L595.945 178.048L595.096 177.52ZM617.176 142V141H616.62L616.326 141.472L617.176 142ZM637.096 142H638.096V141H637.096V142ZM637.096 225H618.736V227H637.096V225ZM619.736 226V171.16H617.736V226H619.736ZM617.901 170.61L594.261 206.49L595.931 207.59L619.571 171.71L617.901 170.61ZM595.096 206.04H594.616V208.04H595.096V206.04ZM595.451 206.49L572.051 170.97L570.381 172.07L593.781 207.59L595.451 206.49ZM570.216 171.52V226H572.216V171.52H570.216ZM571.216 225H553.096V227H571.216V225ZM554.096 226V142H552.096V226H554.096ZM553.096 143H573.016V141H553.096V143ZM572.166 142.528L594.246 178.048L595.945 176.992L573.865 141.472L572.166 142.528ZM595.945 178.048L618.025 142.528L616.326 141.472L594.246 176.992L595.945 178.048ZM617.176 143H637.096V141H617.176V143ZM636.096 142V226H638.096V142H636.096ZM703.235 197.92L702.243 197.796L702.235 197.858V197.92H703.235ZM703.115 200.2V201.2H704.029L704.111 200.291L703.115 200.2ZM658.355 200.2V199.2H657.122L657.377 200.407L658.355 200.2ZM663.755 209.68L663.133 210.463L663.146 210.473L663.159 210.483L663.755 209.68ZM682.235 211.24L682.633 212.158L682.235 211.24ZM689.675 206.2L690.338 205.451L689.667 204.858L689.004 205.459L689.675 206.2ZM700.115 215.44L700.893 216.069L701.494 215.325L700.778 214.691L700.115 215.44ZM689.075 224.32L689.509 225.221L689.516 225.218L689.523 225.214L689.075 224.32ZM660.395 225.04L660.03 225.971L660.036 225.973L660.395 225.04ZM649.715 218.2L649.008 218.907L649.018 218.916L649.715 218.2ZM642.755 207.76L641.831 208.141L641.833 208.147L642.755 207.76ZM642.515 181L641.584 180.635L641.581 180.643L641.578 180.651L642.515 181ZM649.115 170.32L649.851 170.997L649.115 170.32ZM659.075 163.12L658.666 162.208L658.659 162.211L659.075 163.12ZM685.955 163.36L685.515 164.258L685.955 163.36ZM695.675 171.16L694.887 171.775L694.895 171.786L694.904 171.796L695.675 171.16ZM701.435 182.32L700.473 182.592L700.476 182.603L700.48 182.614L701.435 182.32ZM685.595 188.8V189.8H686.742L686.586 188.664L685.595 188.8ZM681.275 178.96L680.534 179.632L680.54 179.637L680.545 179.643L681.275 178.96ZM662.675 178.84L661.957 178.145L661.951 178.151L661.945 178.157L662.675 178.84ZM658.115 188.8L657.13 188.629L656.927 189.8H658.115V188.8ZM702.355 195.64C702.355 196.492 702.316 197.209 702.243 197.796L704.228 198.044C704.314 197.351 704.355 196.548 704.355 195.64H702.355ZM702.235 197.92C702.235 198.521 702.198 199.249 702.119 200.109L704.111 200.291C704.193 199.391 704.235 198.599 704.235 197.92H702.235ZM703.115 199.2H658.355V201.2H703.115V199.2ZM657.377 200.407C658.294 204.742 660.193 208.128 663.133 210.463L664.377 208.897C661.878 206.912 660.177 203.978 659.334 199.993L657.377 200.407ZM663.159 210.483C666.159 212.712 669.818 213.8 674.075 213.8V211.8C670.172 211.8 666.951 210.808 664.352 208.877L663.159 210.483ZM674.075 213.8C677.23 213.8 680.089 213.26 682.633 212.158L681.838 210.322C679.582 211.3 677.001 211.8 674.075 211.8V213.8ZM682.633 212.158C685.16 211.063 687.73 209.312 690.347 206.941L689.004 205.459C686.5 207.728 684.111 209.337 681.838 210.322L682.633 212.158ZM689.013 206.949L699.453 216.189L700.778 214.691L690.338 205.451L689.013 206.949ZM699.338 214.811C696.387 218.46 692.82 221.33 688.628 223.426L689.523 225.214C693.971 222.99 697.763 219.94 700.893 216.069L699.338 214.811ZM688.642 223.419C684.483 225.421 679.557 226.44 673.835 226.44V228.44C679.793 228.44 685.028 227.379 689.509 225.221L688.642 223.419ZM673.835 226.44C669.149 226.44 664.791 225.659 660.754 224.107L660.036 225.973C664.319 227.621 668.922 228.44 673.835 228.44V226.44ZM660.76 224.109C656.8 222.556 653.354 220.348 650.413 217.484L649.018 218.916C652.156 221.972 655.83 224.324 660.03 225.971L660.76 224.109ZM650.422 217.493C647.557 214.628 645.309 211.258 643.677 207.373L641.833 208.147C643.562 212.262 645.953 215.852 649.008 218.907L650.422 217.493ZM643.68 207.379C642.056 203.434 641.235 199.046 641.235 194.2H639.235C639.235 199.274 640.095 203.926 641.831 208.141L643.68 207.379ZM641.235 194.2V193.96H639.235V194.2H641.235ZM641.235 193.96C641.235 189.513 641.976 185.312 643.452 181.349L641.578 180.651C640.015 184.848 639.235 189.287 639.235 193.96H641.235ZM643.446 181.365C645.004 177.393 647.14 173.941 649.851 170.997L648.38 169.643C645.491 172.779 643.227 176.447 641.584 180.635L643.446 181.365ZM649.851 170.997C652.559 168.057 655.77 165.735 659.492 164.029L658.659 162.211C654.701 164.025 651.272 166.503 648.38 169.643L649.851 170.997ZM659.485 164.032C663.264 162.336 667.442 161.48 672.035 161.48V159.48C667.188 159.48 662.727 160.384 658.666 162.208L659.485 164.032ZM672.035 161.48C677.277 161.48 681.76 162.419 685.515 164.258L686.395 162.462C682.311 160.461 677.514 159.48 672.035 159.48V161.48ZM685.515 164.258C689.306 166.115 692.425 168.621 694.887 171.775L696.464 170.545C693.806 167.139 690.444 164.445 686.395 162.462L685.515 164.258ZM694.904 171.796C697.45 174.883 699.308 178.477 700.473 182.592L702.398 182.048C701.162 177.683 699.18 173.837 696.447 170.524L694.904 171.796ZM700.48 182.614C701.729 186.674 702.355 190.935 702.355 195.4H704.355C704.355 190.745 703.702 186.286 702.391 182.026L700.48 182.614ZM702.355 195.4V195.64H704.355V195.4H702.355ZM686.586 188.664C686.004 184.423 684.495 180.938 682.006 178.277L680.545 179.643C682.696 181.942 684.067 185.017 684.605 188.936L686.586 188.664ZM682.016 178.288C679.484 175.495 676.123 174.12 672.035 174.12V176.12C675.628 176.12 678.426 177.305 680.534 179.632L682.016 178.288ZM672.035 174.12C667.958 174.12 664.567 175.447 661.957 178.145L663.394 179.535C665.583 177.273 668.433 176.12 672.035 176.12V174.12ZM661.945 178.157C659.463 180.81 657.875 184.324 657.13 188.629L659.101 188.971C659.796 184.956 661.248 181.83 663.406 179.523L661.945 178.157ZM658.115 189.8H685.595V187.8H658.115V189.8Z" fill="white" fill-opacity="0.5"/>
<defs>
<linearGradient id="paint0_linear_34_2" x1="864" y1="0" x2="864" y2="830" gradientUnits="userSpaceOnUse">
<stop stop-color="#844CFC"/>
<stop offset="1" stop-color="#1B0153" stop-opacity="0.43"/>
</linearGradient>
</defs>
</svg>
