<svg width="1661" height="696" viewBox="0 0 1661 696" fill="none" xmlns="http://www.w3.org/2000/svg">
<rect x="61" y="72" width="1547" height="624" rx="35" fill="#33098B"/>
<circle cx="62.1905" cy="171.587" r="62.1905" fill="url(#paint0_linear_24_117)"/>
<circle cx="1598.61" cy="316.191" r="62.1905" fill="url(#paint1_linear_24_117)"/>
<circle cx="52.4776" cy="546.478" r="38.4776" fill="url(#paint2_linear_24_117)"/>
<path d="M761 68.9018C761 87.1757 768.259 104.701 781.181 117.623C794.102 130.544 811.628 137.804 829.902 137.804C848.176 137.804 865.701 130.544 878.623 117.623C891.544 104.701 898.803 87.1757 898.803 68.9018L829.902 68.9018L761 68.9018Z" fill="url(#paint3_linear_24_117)"/>
<path d="M474.314 377.792L490.314 339.2H495.754L476.49 384.32H472.01L452.746 339.2H458.378L474.314 377.792ZM501.864 343.68H496.232V338.24H501.864V343.68ZM501.48 384H496.552V350.912H501.48V384ZM529.237 374.72C529.237 376.299 528.917 377.707 528.277 378.944C527.679 380.139 526.847 381.163 525.781 382.016C524.757 382.869 523.519 383.531 522.069 384C520.661 384.427 519.125 384.64 517.461 384.64C515.071 384.64 512.661 384.213 510.229 383.36C507.797 382.464 505.642 381.269 503.765 379.776L506.261 376.256C508.053 377.621 509.909 378.667 511.829 379.392C513.791 380.117 515.754 380.48 517.717 380.48C519.722 380.48 521.365 380.011 522.645 379.072C523.925 378.133 524.565 376.853 524.565 375.232V375.104C524.565 374.293 524.33 373.589 523.861 372.992C523.434 372.395 522.837 371.883 522.069 371.456C521.301 370.987 520.405 370.581 519.381 370.24C518.399 369.899 517.375 369.579 516.309 369.28C515.029 368.896 513.727 368.491 512.405 368.064C511.125 367.595 509.951 367.019 508.885 366.336C507.861 365.653 507.007 364.8 506.325 363.776C505.685 362.752 505.365 361.472 505.365 359.936V359.808C505.365 358.4 505.642 357.12 506.197 355.968C506.751 354.773 507.519 353.771 508.501 352.96C509.525 352.107 510.719 351.467 512.085 351.04C513.493 350.571 515.007 350.336 516.629 350.336C518.677 350.336 520.746 350.677 522.837 351.36C524.927 352 526.826 352.875 528.533 353.984L526.293 357.696C524.757 356.715 523.135 355.947 521.429 355.392C519.765 354.795 518.122 354.496 516.501 354.496C514.538 354.496 512.981 354.965 511.829 355.904C510.677 356.8 510.101 357.931 510.101 359.296V359.424C510.101 360.192 510.335 360.875 510.805 361.472C511.274 362.027 511.893 362.517 512.661 362.944C513.471 363.371 514.389 363.755 515.413 364.096C516.437 364.437 517.503 364.779 518.613 365.12C519.893 365.504 521.151 365.931 522.389 366.4C523.669 366.869 524.821 367.467 525.845 368.192C526.869 368.917 527.679 369.792 528.277 370.816C528.917 371.84 529.237 373.099 529.237 374.592V374.72ZM555.48 369.856V350.912H560.344V384H555.48V378.24C554.37 380.032 552.92 381.568 551.128 382.848C549.336 384.085 547.01 384.704 544.152 384.704C542.146 384.704 540.354 384.384 538.776 383.744C537.24 383.104 535.917 382.208 534.808 381.056C533.741 379.861 532.909 378.453 532.312 376.832C531.757 375.211 531.48 373.419 531.48 371.456V350.912H536.408V370.24C536.408 373.312 537.197 375.744 538.776 377.536C540.354 379.328 542.616 380.224 545.56 380.224C546.968 380.224 548.269 379.989 549.464 379.52C550.701 379.008 551.746 378.304 552.6 377.408C553.496 376.469 554.2 375.36 554.712 374.08C555.224 372.8 555.48 371.392 555.48 369.856ZM576.997 354.816C575.034 354.816 573.242 355.051 571.621 355.52C570.042 355.947 568.485 356.523 566.949 357.248L565.477 353.216C567.312 352.363 569.168 351.701 571.045 351.232C572.922 350.72 575.077 350.464 577.509 350.464C582.032 350.464 585.509 351.595 587.941 353.856C590.373 356.075 591.589 359.381 591.589 363.776V384H586.853V379.008C585.701 380.501 584.144 381.824 582.181 382.976C580.261 384.128 577.829 384.704 574.885 384.704C573.349 384.704 571.834 384.491 570.341 384.064C568.89 383.637 567.568 382.997 566.373 382.144C565.221 381.248 564.282 380.16 563.557 378.88C562.874 377.6 562.533 376.085 562.533 374.336C562.533 372.587 562.874 371.051 563.557 369.728C564.24 368.363 565.2 367.232 566.437 366.336C567.717 365.44 569.21 364.757 570.917 364.288C572.666 363.819 574.586 363.584 576.677 363.584C578.81 363.584 580.666 363.712 582.245 363.968C583.824 364.224 585.36 364.565 586.853 364.992V363.84C586.853 360.853 585.978 358.613 584.229 357.12C582.522 355.584 580.112 354.816 576.997 354.816ZM577.189 367.232C574.074 367.232 571.685 367.851 570.021 369.088C568.357 370.325 567.525 372.011 567.525 374.144C567.525 375.211 567.738 376.149 568.165 376.96C568.634 377.771 569.253 378.475 570.021 379.072C570.789 379.627 571.664 380.053 572.645 380.352C573.669 380.651 574.736 380.8 575.845 380.8C577.381 380.8 578.81 380.587 580.133 380.16C581.498 379.691 582.672 379.072 583.653 378.304C584.677 377.493 585.466 376.555 586.021 375.488C586.618 374.379 586.917 373.163 586.917 371.84V368.64C585.68 368.299 584.25 367.979 582.629 367.68C581.05 367.381 579.237 367.232 577.189 367.232ZM601.068 384H596.14V337.28H601.068V384ZM657.548 347.712L641.227 371.712H640.971L624.651 347.776V384H619.723V339.2H624.843L641.163 363.648L657.483 339.2H662.604V384H657.548V347.712ZM680.022 354.816C678.059 354.816 676.267 355.051 674.646 355.52C673.067 355.947 671.51 356.523 669.974 357.248L668.502 353.216C670.337 352.363 672.193 351.701 674.07 351.232C675.947 350.72 678.102 350.464 680.534 350.464C685.057 350.464 688.534 351.595 690.966 353.856C693.398 356.075 694.614 359.381 694.614 363.776V384H689.878V379.008C688.726 380.501 687.169 381.824 685.206 382.976C683.286 384.128 680.854 384.704 677.91 384.704C676.374 384.704 674.859 384.491 673.366 384.064C671.915 383.637 670.593 382.997 669.398 382.144C668.246 381.248 667.307 380.16 666.582 378.88C665.899 377.6 665.558 376.085 665.558 374.336C665.558 372.587 665.899 371.051 666.582 369.728C667.265 368.363 668.225 367.232 669.462 366.336C670.742 365.44 672.235 364.757 673.942 364.288C675.691 363.819 677.611 363.584 679.702 363.584C681.835 363.584 683.691 363.712 685.27 363.968C686.849 364.224 688.385 364.565 689.878 364.992V363.84C689.878 360.853 689.003 358.613 687.254 357.12C685.547 355.584 683.137 354.816 680.022 354.816ZM680.214 367.232C677.099 367.232 674.71 367.851 673.046 369.088C671.382 370.325 670.55 372.011 670.55 374.144C670.55 375.211 670.763 376.149 671.19 376.96C671.659 377.771 672.278 378.475 673.046 379.072C673.814 379.627 674.689 380.053 675.67 380.352C676.694 380.651 677.761 380.8 678.87 380.8C680.406 380.8 681.835 380.587 683.158 380.16C684.523 379.691 685.697 379.072 686.678 378.304C687.702 377.493 688.491 376.555 689.046 375.488C689.643 374.379 689.942 373.163 689.942 371.84V368.64C688.705 368.299 687.275 367.979 685.654 367.68C684.075 367.381 682.262 367.232 680.214 367.232ZM721.436 374.72C721.436 376.299 721.116 377.707 720.476 378.944C719.879 380.139 719.047 381.163 717.98 382.016C716.956 382.869 715.719 383.531 714.268 384C712.86 384.427 711.324 384.64 709.66 384.64C707.271 384.64 704.86 384.213 702.428 383.36C699.996 382.464 697.842 381.269 695.964 379.776L698.46 376.256C700.252 377.621 702.108 378.667 704.028 379.392C705.991 380.117 707.954 380.48 709.916 380.48C711.922 380.48 713.564 380.011 714.844 379.072C716.124 378.133 716.764 376.853 716.764 375.232V375.104C716.764 374.293 716.53 373.589 716.06 372.992C715.634 372.395 715.036 371.883 714.268 371.456C713.5 370.987 712.604 370.581 711.58 370.24C710.599 369.899 709.575 369.579 708.508 369.28C707.228 368.896 705.927 368.491 704.604 368.064C703.324 367.595 702.151 367.019 701.084 366.336C700.06 365.653 699.207 364.8 698.524 363.776C697.884 362.752 697.564 361.472 697.564 359.936V359.808C697.564 358.4 697.842 357.12 698.396 355.968C698.951 354.773 699.719 353.771 700.7 352.96C701.724 352.107 702.919 351.467 704.284 351.04C705.692 350.571 707.207 350.336 708.828 350.336C710.876 350.336 712.946 350.677 715.036 351.36C717.127 352 719.026 352.875 720.732 353.984L718.492 357.696C716.956 356.715 715.335 355.947 713.628 355.392C711.964 354.795 710.322 354.496 708.7 354.496C706.738 354.496 705.18 354.965 704.028 355.904C702.876 356.8 702.3 357.931 702.3 359.296V359.424C702.3 360.192 702.535 360.875 703.004 361.472C703.474 362.027 704.092 362.517 704.86 362.944C705.671 363.371 706.588 363.755 707.612 364.096C708.636 364.437 709.703 364.779 710.812 365.12C712.092 365.504 713.351 365.931 714.588 366.4C715.868 366.869 717.02 367.467 718.044 368.192C719.068 368.917 719.879 369.792 720.476 370.816C721.116 371.84 721.436 373.099 721.436 374.592V374.72ZM730.223 355.264V374.592C730.223 376.64 730.735 378.069 731.759 378.88C732.783 379.691 734.127 380.096 735.791 380.096C736.644 380.096 737.433 380.011 738.159 379.84C738.927 379.669 739.737 379.371 740.591 378.944V383.168C739.737 383.637 738.82 383.979 737.839 384.192C736.9 384.448 735.833 384.576 734.639 384.576C733.316 384.576 732.079 384.405 730.927 384.064C729.775 383.723 728.772 383.189 727.919 382.464C727.108 381.696 726.468 380.715 725.999 379.52C725.529 378.325 725.295 376.896 725.295 375.232V355.264H720.687V350.912H725.295V340.928H730.223V350.912H740.719V355.264H730.223ZM745.048 369.28C745.219 371.072 745.645 372.672 746.328 374.08C747.011 375.445 747.885 376.619 748.952 377.6C750.019 378.539 751.213 379.264 752.536 379.776C753.859 380.245 755.245 380.48 756.696 380.48C759 380.48 760.963 380.053 762.584 379.2C764.248 378.347 765.763 377.216 767.128 375.808L770.2 378.56C768.536 380.437 766.637 381.952 764.504 383.104C762.371 384.213 759.725 384.768 756.568 384.768C754.307 384.768 752.173 384.363 750.168 383.552C748.163 382.699 746.413 381.525 744.92 380.032C743.427 378.496 742.232 376.661 741.336 374.528C740.483 372.395 740.056 370.048 740.056 367.488C740.056 365.099 740.44 362.859 741.208 360.768C742.019 358.635 743.128 356.8 744.536 355.264C745.944 353.685 747.608 352.448 749.528 351.552C751.491 350.656 753.624 350.208 755.928 350.208C758.36 350.208 760.536 350.677 762.456 351.616C764.376 352.512 765.997 353.749 767.32 355.328C768.643 356.907 769.645 358.763 770.328 360.896C771.011 363.029 771.352 365.312 771.352 367.744C771.352 367.957 771.352 368.192 771.352 368.448C771.352 368.704 771.331 368.981 771.288 369.28H745.048ZM745.048 365.632H766.36C766.232 364.139 765.912 362.709 765.4 361.344C764.931 359.979 764.248 358.784 763.352 357.76C762.499 356.736 761.432 355.925 760.152 355.328C758.915 354.688 757.464 354.368 755.8 354.368C754.349 354.368 753.005 354.667 751.768 355.264C750.531 355.819 749.443 356.608 748.504 357.632C747.565 358.613 746.797 359.787 746.2 361.152C745.603 362.517 745.219 364.011 745.048 365.632ZM778.507 370.816V384H773.579V350.912H778.507V359.552C779.104 358.187 779.851 356.928 780.747 355.776C781.643 354.624 782.667 353.643 783.819 352.832C784.971 351.979 786.23 351.339 787.595 350.912C788.96 350.485 790.432 350.293 792.011 350.336V355.648H791.627C789.835 355.648 788.128 355.968 786.507 356.608C784.928 357.248 783.542 358.208 782.347 359.488C781.152 360.768 780.214 362.368 779.531 364.288C778.848 366.165 778.507 368.341 778.507 370.816ZM826.524 367.424C826.524 370.155 826.076 372.587 825.18 374.72C824.284 376.853 823.09 378.667 821.596 380.16C820.146 381.611 818.46 382.741 816.54 383.552C814.663 384.32 812.722 384.704 810.716 384.704C809.18 384.704 807.772 384.512 806.492 384.128C805.212 383.744 804.06 383.232 803.036 382.592C802.012 381.952 801.074 381.205 800.22 380.352C799.41 379.499 798.684 378.603 798.044 377.664V394.24H793.116V350.912H798.044V357.568C798.727 356.587 799.474 355.648 800.284 354.752C801.138 353.856 802.076 353.088 803.1 352.448C804.124 351.765 805.255 351.232 806.492 350.848C807.772 350.421 809.18 350.208 810.716 350.208C812.679 350.208 814.599 350.592 816.476 351.36C818.396 352.128 820.103 353.259 821.596 354.752C823.09 356.203 824.284 357.995 825.18 360.128C826.076 362.261 826.524 364.693 826.524 367.424ZM821.468 367.488C821.468 365.525 821.148 363.755 820.508 362.176C819.911 360.597 819.079 359.253 818.012 358.144C816.946 356.992 815.708 356.117 814.3 355.52C812.892 354.923 811.399 354.624 809.82 354.624C808.284 354.624 806.791 354.944 805.34 355.584C803.932 356.181 802.652 357.035 801.5 358.144C800.391 359.253 799.495 360.597 798.812 362.176C798.172 363.755 797.852 365.504 797.852 367.424C797.852 369.344 798.172 371.115 798.812 372.736C799.495 374.315 800.391 375.659 801.5 376.768C802.652 377.877 803.932 378.752 805.34 379.392C806.791 379.989 808.284 380.288 809.82 380.288C811.399 380.288 812.892 380.011 814.3 379.456C815.751 378.859 816.988 378.027 818.012 376.96C819.079 375.851 819.911 374.507 820.508 372.928C821.148 371.307 821.468 369.493 821.468 367.488ZM834.976 343.68H829.344V338.24H834.976V343.68ZM834.592 384H829.664V350.912H834.592V384ZM842.573 369.28C842.744 371.072 843.17 372.672 843.853 374.08C844.536 375.445 845.41 376.619 846.477 377.6C847.544 378.539 848.738 379.264 850.061 379.776C851.384 380.245 852.77 380.48 854.221 380.48C856.525 380.48 858.488 380.053 860.109 379.2C861.773 378.347 863.288 377.216 864.653 375.808L867.725 378.56C866.061 380.437 864.162 381.952 862.029 383.104C859.896 384.213 857.25 384.768 854.093 384.768C851.832 384.768 849.698 384.363 847.693 383.552C845.688 382.699 843.938 381.525 842.445 380.032C840.952 378.496 839.757 376.661 838.861 374.528C838.008 372.395 837.581 370.048 837.581 367.488C837.581 365.099 837.965 362.859 838.733 360.768C839.544 358.635 840.653 356.8 842.061 355.264C843.469 353.685 845.133 352.448 847.053 351.552C849.016 350.656 851.149 350.208 853.453 350.208C855.885 350.208 858.061 350.677 859.981 351.616C861.901 352.512 863.522 353.749 864.845 355.328C866.168 356.907 867.17 358.763 867.853 360.896C868.536 363.029 868.877 365.312 868.877 367.744C868.877 367.957 868.877 368.192 868.877 368.448C868.877 368.704 868.856 368.981 868.813 369.28H842.573ZM842.573 365.632H863.885C863.757 364.139 863.437 362.709 862.925 361.344C862.456 359.979 861.773 358.784 860.877 357.76C860.024 356.736 858.957 355.925 857.677 355.328C856.44 354.688 854.989 354.368 853.325 354.368C851.874 354.368 850.53 354.667 849.293 355.264C848.056 355.819 846.968 356.608 846.029 357.632C845.09 358.613 844.322 359.787 843.725 361.152C843.128 362.517 842.744 364.011 842.573 365.632ZM899.52 378.368C897.856 380.245 895.957 381.781 893.824 382.976C891.733 384.171 889.131 384.768 886.016 384.768C883.584 384.768 881.323 384.32 879.232 383.424C877.184 382.485 875.392 381.248 873.856 379.712C872.363 378.133 871.189 376.299 870.336 374.208C869.483 372.117 869.056 369.899 869.056 367.552C869.056 365.205 869.483 362.987 870.336 360.896C871.189 358.763 872.363 356.907 873.856 355.328C875.392 353.749 877.184 352.512 879.232 351.616C881.323 350.677 883.584 350.208 886.016 350.208C887.595 350.208 889.024 350.357 890.304 350.656C891.584 350.955 892.757 351.381 893.824 351.936C894.891 352.448 895.872 353.067 896.768 353.792C897.664 354.517 898.496 355.285 899.264 356.096L896 359.552C894.677 358.187 893.227 357.013 891.648 356.032C890.112 355.051 888.213 354.56 885.952 354.56C884.288 354.56 882.731 354.901 881.28 355.584C879.829 356.224 878.571 357.141 877.504 358.336C876.437 359.488 875.605 360.853 875.008 362.432C874.411 363.968 874.112 365.632 874.112 367.424C874.112 369.216 874.411 370.901 875.008 372.48C875.648 374.059 876.501 375.445 877.568 376.64C878.677 377.792 879.957 378.709 881.408 379.392C882.901 380.032 884.523 380.352 886.272 380.352C888.405 380.352 890.283 379.883 891.904 378.944C893.568 378.005 895.061 376.832 896.384 375.424L899.52 378.368ZM903.273 369.28C903.444 371.072 903.87 372.672 904.553 374.08C905.236 375.445 906.11 376.619 907.177 377.6C908.244 378.539 909.438 379.264 910.761 379.776C912.084 380.245 913.47 380.48 914.921 380.48C917.225 380.48 919.188 380.053 920.809 379.2C922.473 378.347 923.988 377.216 925.353 375.808L928.425 378.56C926.761 380.437 924.862 381.952 922.729 383.104C920.596 384.213 917.95 384.768 914.793 384.768C912.532 384.768 910.398 384.363 908.393 383.552C906.388 382.699 904.638 381.525 903.145 380.032C901.652 378.496 900.457 376.661 899.561 374.528C898.708 372.395 898.281 370.048 898.281 367.488C898.281 365.099 898.665 362.859 899.433 360.768C900.244 358.635 901.353 356.8 902.761 355.264C904.169 353.685 905.833 352.448 907.753 351.552C909.716 350.656 911.849 350.208 914.153 350.208C916.585 350.208 918.761 350.677 920.681 351.616C922.601 352.512 924.222 353.749 925.545 355.328C926.868 356.907 927.87 358.763 928.553 360.896C929.236 363.029 929.577 365.312 929.577 367.744C929.577 367.957 929.577 368.192 929.577 368.448C929.577 368.704 929.556 368.981 929.513 369.28H903.273ZM903.273 365.632H924.585C924.457 364.139 924.137 362.709 923.625 361.344C923.156 359.979 922.473 358.784 921.577 357.76C920.724 356.736 919.657 355.925 918.377 355.328C917.14 354.688 915.689 354.368 914.025 354.368C912.574 354.368 911.23 354.667 909.993 355.264C908.756 355.819 907.668 356.608 906.729 357.632C905.79 358.613 905.022 359.787 904.425 361.152C903.828 362.517 903.444 364.011 903.273 365.632ZM954.524 374.72C954.524 376.299 954.204 377.707 953.564 378.944C952.967 380.139 952.135 381.163 951.068 382.016C950.044 382.869 948.807 383.531 947.356 384C945.948 384.427 944.412 384.64 942.748 384.64C940.359 384.64 937.948 384.213 935.516 383.36C933.084 382.464 930.929 381.269 929.052 379.776L931.548 376.256C933.34 377.621 935.196 378.667 937.116 379.392C939.079 380.117 941.041 380.48 943.004 380.48C945.009 380.48 946.652 380.011 947.932 379.072C949.212 378.133 949.852 376.853 949.852 375.232V375.104C949.852 374.293 949.617 373.589 949.148 372.992C948.721 372.395 948.124 371.883 947.356 371.456C946.588 370.987 945.692 370.581 944.668 370.24C943.687 369.899 942.663 369.579 941.596 369.28C940.316 368.896 939.015 368.491 937.692 368.064C936.412 367.595 935.239 367.019 934.172 366.336C933.148 365.653 932.295 364.8 931.612 363.776C930.972 362.752 930.652 361.472 930.652 359.936V359.808C930.652 358.4 930.929 357.12 931.484 355.968C932.039 354.773 932.807 353.771 933.788 352.96C934.812 352.107 936.007 351.467 937.372 351.04C938.78 350.571 940.295 350.336 941.916 350.336C943.964 350.336 946.033 350.677 948.124 351.36C950.215 352 952.113 352.875 953.82 353.984L951.58 357.696C950.044 356.715 948.423 355.947 946.716 355.392C945.052 354.795 943.409 354.496 941.788 354.496C939.825 354.496 938.268 354.965 937.116 355.904C935.964 356.8 935.388 357.931 935.388 359.296V359.424C935.388 360.192 935.623 360.875 936.092 361.472C936.561 362.027 937.18 362.517 937.948 362.944C938.759 363.371 939.676 363.755 940.7 364.096C941.724 364.437 942.791 364.779 943.9 365.12C945.18 365.504 946.439 365.931 947.676 366.4C948.956 366.869 950.108 367.467 951.132 368.192C952.156 368.917 952.967 369.792 953.564 370.816C954.204 371.84 954.524 373.099 954.524 374.592V374.72ZM962.911 357.632H957.023V350.912H962.911V357.632ZM962.911 384H957.023V377.28H962.911V384ZM1002.12 338.88L1022.54 384H1017.1L1011.85 372.16H987.467L982.155 384H976.971L997.387 338.88H1002.12ZM1009.87 367.616L999.691 344.768L989.451 367.616H1009.87ZM1076.54 377.92C1074.45 379.797 1071.87 381.419 1068.8 382.784C1065.77 384.107 1062.36 384.768 1058.56 384.768C1055.02 384.768 1051.84 384.171 1049.02 382.976C1046.25 381.781 1043.86 380.139 1041.86 378.048C1039.89 375.957 1038.38 373.504 1037.31 370.688C1036.29 367.872 1035.78 364.864 1035.78 361.664C1035.78 358.592 1036.31 355.648 1037.38 352.832C1038.49 350.016 1040.02 347.541 1041.98 345.408C1043.95 343.275 1046.29 341.589 1049.02 340.352C1051.8 339.072 1054.87 338.432 1058.24 338.432C1060.12 338.432 1061.82 338.56 1063.36 338.816C1064.94 339.072 1066.39 339.456 1067.71 339.968C1069.08 340.48 1070.34 341.12 1071.49 341.888C1072.68 342.613 1073.84 343.445 1074.94 344.384L1071.68 348.224C1070.83 347.456 1069.93 346.773 1068.99 346.176C1068.05 345.536 1067.03 345.003 1065.92 344.576C1064.85 344.107 1063.66 343.744 1062.34 343.488C1061.06 343.232 1059.63 343.104 1058.05 343.104C1055.57 343.104 1053.29 343.595 1051.2 344.576C1049.11 345.557 1047.32 346.88 1045.82 348.544C1044.33 350.208 1043.16 352.171 1042.3 354.432C1041.45 356.651 1041.02 359.019 1041.02 361.536C1041.02 364.224 1041.43 366.72 1042.24 369.024C1043.09 371.285 1044.29 373.248 1045.82 374.912C1047.36 376.576 1049.22 377.877 1051.39 378.816C1053.57 379.755 1056.02 380.224 1058.75 380.224C1061.31 380.224 1063.72 379.797 1065.98 378.944C1068.25 378.048 1070.14 376.981 1071.68 375.744V364.608H1058.05V360.064H1076.54V377.92ZM1093.31 354.816C1091.35 354.816 1089.55 355.051 1087.93 355.52C1086.35 355.947 1084.8 356.523 1083.26 357.248L1081.79 353.216C1083.62 352.363 1085.48 351.701 1087.36 351.232C1089.23 350.72 1091.39 350.464 1093.82 350.464C1098.34 350.464 1101.82 351.595 1104.25 353.856C1106.69 356.075 1107.9 359.381 1107.9 363.776V384H1103.17V379.008C1102.01 380.501 1100.46 381.824 1098.49 382.976C1096.57 384.128 1094.14 384.704 1091.2 384.704C1089.66 384.704 1088.15 384.491 1086.65 384.064C1085.2 383.637 1083.88 382.997 1082.69 382.144C1081.53 381.248 1080.59 380.16 1079.87 378.88C1079.19 377.6 1078.85 376.085 1078.85 374.336C1078.85 372.587 1079.19 371.051 1079.87 369.728C1080.55 368.363 1081.51 367.232 1082.75 366.336C1084.03 365.44 1085.52 364.757 1087.23 364.288C1088.98 363.819 1090.9 363.584 1092.99 363.584C1095.12 363.584 1096.98 363.712 1098.56 363.968C1100.14 364.224 1101.67 364.565 1103.17 364.992V363.84C1103.17 360.853 1102.29 358.613 1100.54 357.12C1098.83 355.584 1096.42 354.816 1093.31 354.816ZM1093.5 367.232C1090.39 367.232 1088 367.851 1086.33 369.088C1084.67 370.325 1083.84 372.011 1083.84 374.144C1083.84 375.211 1084.05 376.149 1084.48 376.96C1084.95 377.771 1085.57 378.475 1086.33 379.072C1087.1 379.627 1087.98 380.053 1088.96 380.352C1089.98 380.651 1091.05 380.8 1092.16 380.8C1093.69 380.8 1095.12 380.587 1096.45 380.16C1097.81 379.691 1098.98 379.072 1099.97 378.304C1100.99 377.493 1101.78 376.555 1102.33 375.488C1102.93 374.379 1103.23 373.163 1103.23 371.84V368.64C1101.99 368.299 1100.56 367.979 1098.94 367.68C1097.36 367.381 1095.55 367.232 1093.5 367.232ZM1117.38 384H1112.45V337.28H1117.38V384ZM1127.79 384H1122.86V337.28H1127.79V384ZM1135.77 369.28C1135.94 371.072 1136.37 372.672 1137.05 374.08C1137.74 375.445 1138.61 376.619 1139.68 377.6C1140.74 378.539 1141.94 379.264 1143.26 379.776C1144.58 380.245 1145.97 380.48 1147.42 380.48C1149.73 380.48 1151.69 380.053 1153.31 379.2C1154.97 378.347 1156.49 377.216 1157.85 375.808L1160.93 378.56C1159.26 380.437 1157.36 381.952 1155.23 383.104C1153.1 384.213 1150.45 384.768 1147.29 384.768C1145.03 384.768 1142.9 384.363 1140.89 383.552C1138.89 382.699 1137.14 381.525 1135.65 380.032C1134.15 378.496 1132.96 376.661 1132.06 374.528C1131.21 372.395 1130.78 370.048 1130.78 367.488C1130.78 365.099 1131.17 362.859 1131.93 360.768C1132.74 358.635 1133.85 356.8 1135.26 355.264C1136.67 353.685 1138.33 352.448 1140.25 351.552C1142.22 350.656 1144.35 350.208 1146.65 350.208C1149.09 350.208 1151.26 350.677 1153.18 351.616C1155.1 352.512 1156.72 353.749 1158.05 355.328C1159.37 356.907 1160.37 358.763 1161.05 360.896C1161.74 363.029 1162.08 365.312 1162.08 367.744C1162.08 367.957 1162.08 368.192 1162.08 368.448C1162.08 368.704 1162.06 368.981 1162.01 369.28H1135.77ZM1135.77 365.632H1157.09C1156.96 364.139 1156.64 362.709 1156.13 361.344C1155.66 359.979 1154.97 358.784 1154.08 357.76C1153.22 356.736 1152.16 355.925 1150.88 355.328C1149.64 354.688 1148.19 354.368 1146.53 354.368C1145.07 354.368 1143.73 354.667 1142.49 355.264C1141.26 355.819 1140.17 356.608 1139.23 357.632C1138.29 358.613 1137.52 359.787 1136.93 361.152C1136.33 362.517 1135.94 364.011 1135.77 365.632ZM1169.23 370.816V384H1164.3V350.912H1169.23V359.552C1169.83 358.187 1170.58 356.928 1171.47 355.776C1172.37 354.624 1173.39 353.643 1174.54 352.832C1175.7 351.979 1176.95 351.339 1178.32 350.912C1179.69 350.485 1181.16 350.293 1182.74 350.336V355.648H1182.35C1180.56 355.648 1178.85 355.968 1177.23 356.608C1175.65 357.248 1174.27 358.208 1173.07 359.488C1171.88 360.768 1170.94 362.368 1170.26 364.288C1169.57 366.165 1169.23 368.341 1169.23 370.816ZM1213.86 350.912L1199.97 385.088C1198.56 388.501 1196.98 390.912 1195.23 392.32C1193.53 393.728 1191.44 394.432 1188.96 394.432C1187.6 394.432 1186.36 394.283 1185.25 393.984C1184.14 393.728 1183.03 393.323 1181.92 392.768L1183.59 388.864C1184.4 389.291 1185.19 389.589 1185.95 389.76C1186.76 389.973 1187.7 390.08 1188.77 390.08C1190.26 390.08 1191.52 389.632 1192.55 388.736C1193.57 387.84 1194.57 386.219 1195.55 383.872L1180.51 350.912H1185.95L1197.99 378.496L1208.61 350.912H1213.86ZM495.402 428.424C495.402 430.771 494.954 433.011 494.058 435.144C493.205 437.235 492.01 439.069 490.474 440.648C488.938 442.227 487.103 443.485 484.97 444.424C482.837 445.32 480.533 445.768 478.058 445.768C475.583 445.768 473.301 445.32 471.21 444.424C469.119 443.485 467.306 442.248 465.77 440.712C464.234 439.133 463.039 437.299 462.186 435.208C461.333 433.117 460.906 430.899 460.906 428.552C460.906 426.205 461.333 423.987 462.186 421.896C463.039 419.763 464.234 417.907 465.77 416.328C467.306 414.749 469.119 413.512 471.21 412.616C473.343 411.677 475.669 411.208 478.186 411.208C480.661 411.208 482.943 411.677 485.034 412.616C487.167 413.512 489.002 414.749 490.538 416.328C492.074 417.864 493.269 419.677 494.122 421.768C494.975 423.859 495.402 426.077 495.402 428.424ZM490.346 428.552C490.346 426.76 490.026 425.075 489.386 423.496C488.789 421.917 487.935 420.552 486.826 419.4C485.717 418.205 484.415 417.267 482.922 416.584C481.429 415.901 479.807 415.56 478.058 415.56C476.266 415.56 474.623 415.901 473.13 416.584C471.637 417.224 470.357 418.141 469.29 419.336C468.266 420.488 467.455 421.853 466.858 423.432C466.261 424.968 465.962 426.632 465.962 428.424C465.962 430.216 466.261 431.901 466.858 433.48C467.498 435.059 468.351 436.424 469.418 437.576C470.527 438.728 471.829 439.645 473.322 440.328C474.815 441.011 476.437 441.352 478.186 441.352C479.978 441.352 481.621 441.032 483.114 440.392C484.607 439.709 485.887 438.792 486.954 437.64C488.021 436.488 488.853 435.144 489.45 433.608C490.047 432.029 490.346 430.344 490.346 428.552ZM504.649 412.04H515.145V416.264H504.713V445H499.785V416.264H495.241V411.976H499.785V409.096C499.785 405.469 500.638 402.717 502.345 400.84C504.094 398.963 506.569 398.024 509.769 398.024C510.921 398.024 511.902 398.088 512.713 398.216C513.566 398.344 514.398 398.557 515.209 398.856V403.144C514.313 402.888 513.502 402.696 512.777 402.568C512.052 402.397 511.262 402.312 510.409 402.312C506.569 402.312 504.649 404.659 504.649 409.352V412.04Z" fill="white"/>
<path d="M568.393 438.664C566.089 440.627 563.337 442.312 560.137 443.72C556.979 445.085 553.353 445.768 549.257 445.768C545.758 445.768 542.558 445.192 539.657 444.04C536.798 442.888 534.323 441.288 532.233 439.24C530.185 437.192 528.585 434.76 527.433 431.944C526.281 429.128 525.705 426.056 525.705 422.728V422.6C525.705 419.4 526.281 416.413 527.433 413.64C528.627 410.824 530.27 408.371 532.361 406.28C534.451 404.147 536.926 402.483 539.785 401.288C542.643 400.051 545.779 399.432 549.193 399.432C551.198 399.432 553.011 399.581 554.633 399.88C556.297 400.136 557.833 400.52 559.241 401.032C560.649 401.544 561.971 402.184 563.209 402.952C564.446 403.72 565.641 404.595 566.793 405.576L560.585 413.064C559.731 412.339 558.878 411.699 558.025 411.144C557.171 410.589 556.275 410.12 555.337 409.736C554.441 409.352 553.459 409.053 552.393 408.84C551.326 408.627 550.153 408.52 548.873 408.52C547.081 408.52 545.395 408.904 543.817 409.672C542.281 410.397 540.915 411.4 539.721 412.68C538.569 413.917 537.651 415.389 536.969 417.096C536.329 418.76 536.009 420.552 536.009 422.472V422.6C536.009 424.648 536.329 426.547 536.969 428.296C537.651 430.003 538.59 431.496 539.785 432.776C541.022 434.056 542.451 435.059 544.073 435.784C545.737 436.467 547.571 436.808 549.577 436.808C553.246 436.808 556.339 435.912 558.857 434.12V427.72H548.937V419.208H568.393V438.664ZM591.124 420.232H590.612C587.369 420.232 584.809 421.213 582.932 423.176C581.097 425.139 580.18 428.189 580.18 432.328V445H570.452V410.696H580.18V417.608C581.161 415.261 582.505 413.384 584.212 411.976C585.919 410.568 588.223 409.928 591.124 410.056V420.232ZM620.306 445H610.898V441.288C609.703 442.611 608.274 443.677 606.61 444.488C604.946 445.256 602.919 445.64 600.53 445.64C598.909 445.64 597.373 445.427 595.922 445C594.514 444.531 593.277 443.848 592.21 442.952C591.143 442.056 590.29 440.968 589.65 439.688C589.053 438.365 588.754 436.851 588.754 435.144V435.016C588.754 433.139 589.095 431.517 589.778 430.152C590.461 428.787 591.399 427.656 592.594 426.76C593.831 425.864 595.282 425.203 596.946 424.776C598.653 424.307 600.53 424.072 602.578 424.072C604.327 424.072 605.842 424.2 607.122 424.456C608.445 424.712 609.725 425.053 610.962 425.48V424.904C610.962 422.856 610.343 421.299 609.106 420.232C607.869 419.165 606.034 418.632 603.602 418.632C601.725 418.632 600.061 418.803 598.61 419.144C597.202 419.443 595.709 419.891 594.13 420.488L591.698 413.064C593.575 412.253 595.538 411.592 597.586 411.08C599.634 410.568 602.109 410.312 605.01 410.312C610.343 410.312 614.226 411.613 616.658 414.216C619.09 416.819 620.306 420.445 620.306 425.096V445ZM611.09 432.904V431.176C610.237 430.792 609.277 430.493 608.21 430.28C607.186 430.024 606.077 429.896 604.882 429.896C602.791 429.896 601.149 430.301 599.954 431.112C598.759 431.923 598.162 433.096 598.162 434.632V434.76C598.162 436.083 598.653 437.107 599.634 437.832C600.615 438.557 601.895 438.92 603.474 438.92C605.778 438.92 607.613 438.365 608.978 437.256C610.386 436.147 611.09 434.696 611.09 432.904ZM658.309 427.912C658.309 430.771 657.861 433.309 656.965 435.528C656.112 437.704 654.96 439.56 653.509 441.096C652.101 442.589 650.458 443.72 648.581 444.488C646.704 445.256 644.741 445.64 642.693 445.64C640.09 445.64 637.936 445.128 636.229 444.104C634.565 443.08 633.157 441.885 632.005 440.52V455.24H622.277V410.696H632.005V415.624C633.2 414.003 634.629 412.68 636.293 411.656C638 410.589 640.133 410.056 642.693 410.056C644.698 410.056 646.64 410.44 648.517 411.208C650.394 411.976 652.058 413.128 653.509 414.664C654.96 416.157 656.112 418.013 656.965 420.232C657.861 422.408 658.309 424.925 658.309 427.784V427.912ZM648.581 427.912V427.784C648.581 426.376 648.346 425.096 647.877 423.944C647.45 422.749 646.853 421.747 646.085 420.936C645.317 420.083 644.421 419.443 643.397 419.016C642.416 418.547 641.349 418.312 640.197 418.312C639.045 418.312 637.957 418.547 636.933 419.016C635.952 419.443 635.077 420.083 634.309 420.936C633.584 421.747 632.986 422.749 632.517 423.944C632.09 425.096 631.877 426.376 631.877 427.784V427.912C631.877 429.32 632.09 430.621 632.517 431.816C632.986 432.968 633.584 433.971 634.309 434.824C635.077 435.635 635.952 436.275 636.933 436.744C637.957 437.171 639.045 437.384 640.197 437.384C641.349 437.384 642.416 437.171 643.397 436.744C644.421 436.275 645.317 435.635 646.085 434.824C646.853 433.971 647.45 432.968 647.877 431.816C648.346 430.664 648.581 429.363 648.581 427.912ZM690.489 445H680.761V425.864C680.761 423.56 680.249 421.832 679.225 420.68C678.201 419.485 676.75 418.888 674.873 418.888C672.995 418.888 671.502 419.485 670.393 420.68C669.326 421.832 668.793 423.56 668.793 425.864V445H659.065V398.28H668.793V415.56C669.347 414.835 669.945 414.152 670.585 413.512C671.267 412.829 672.014 412.232 672.825 411.72C673.635 411.208 674.531 410.803 675.513 410.504C676.494 410.205 677.603 410.056 678.841 410.056C682.553 410.056 685.411 411.187 687.417 413.448C689.465 415.709 690.489 418.824 690.489 422.792V445ZM702.972 406.92H692.732V398.28H702.972V406.92ZM702.716 445H692.988V410.696H702.716V445ZM735.66 439.496C733.996 441.331 732.097 442.845 729.964 444.04C727.831 445.192 725.057 445.768 721.644 445.768C719.084 445.768 716.695 445.299 714.476 444.36C712.3 443.421 710.423 442.163 708.844 440.584C707.265 438.963 706.028 437.085 705.132 434.952C704.236 432.776 703.788 430.472 703.788 428.04V427.912C703.788 425.48 704.236 423.176 705.132 421C706.028 418.824 707.265 416.925 708.844 415.304C710.423 413.683 712.3 412.403 714.476 411.464C716.695 410.525 719.127 410.056 721.772 410.056C725.015 410.056 727.703 410.568 729.836 411.592C731.969 412.616 733.847 414.024 735.468 415.816L729.516 422.216C728.407 421.064 727.255 420.147 726.06 419.464C724.908 418.781 723.457 418.44 721.708 418.44C720.471 418.44 719.34 418.696 718.316 419.208C717.335 419.677 716.46 420.339 715.692 421.192C714.967 422.045 714.391 423.048 713.964 424.2C713.58 425.309 713.388 426.504 713.388 427.784V427.912C713.388 429.235 713.58 430.472 713.964 431.624C714.391 432.776 714.988 433.779 715.756 434.632C716.524 435.485 717.441 436.168 718.508 436.68C719.575 437.149 720.769 437.384 722.092 437.384C723.713 437.384 725.121 437.064 726.316 436.424C727.553 435.741 728.769 434.845 729.964 433.736L735.66 439.496ZM790.706 422.6C790.706 425.757 790.13 428.701 788.978 431.432C787.826 434.163 786.183 436.531 784.05 438.536C781.959 440.541 779.442 442.12 776.498 443.272C773.597 444.424 770.397 445 766.898 445H749.426V400.2H766.898C770.397 400.2 773.597 400.776 776.498 401.928C779.442 403.037 781.959 404.595 784.05 406.6C786.183 408.605 787.826 410.973 788.978 413.704C790.13 416.392 790.706 419.315 790.706 422.472V422.6ZM780.402 422.728V422.6C780.402 420.637 780.061 418.824 779.378 417.16C778.738 415.496 777.821 414.067 776.626 412.872C775.474 411.677 774.066 410.76 772.402 410.12C770.738 409.437 768.903 409.096 766.898 409.096H759.282V436.104H766.898C768.903 436.104 770.738 435.784 772.402 435.144C774.066 434.504 775.474 433.587 776.626 432.392C777.821 431.197 778.738 429.789 779.378 428.168C780.061 426.547 780.402 424.733 780.402 422.728ZM824.065 428.808C824.065 429.277 824.043 429.683 824.001 430.024C824.001 430.365 823.979 430.771 823.937 431.24H800.065C800.534 433.459 801.494 435.144 802.945 436.296C804.438 437.405 806.273 437.96 808.449 437.96C810.07 437.96 811.521 437.683 812.801 437.128C814.081 436.573 815.403 435.677 816.769 434.44L822.337 439.368C820.715 441.373 818.753 442.952 816.449 444.104C814.145 445.213 811.435 445.768 808.321 445.768C805.761 445.768 803.371 445.341 801.153 444.488C798.977 443.635 797.078 442.419 795.457 440.84C793.878 439.261 792.641 437.405 791.745 435.272C790.849 433.096 790.401 430.685 790.401 428.04V427.912C790.401 425.48 790.806 423.176 791.617 421C792.47 418.824 793.643 416.925 795.137 415.304C796.63 413.683 798.401 412.403 800.449 411.464C802.539 410.525 804.843 410.056 807.361 410.056C810.219 410.056 812.694 410.568 814.785 411.592C816.875 412.616 818.603 414.003 819.969 415.752C821.377 417.459 822.401 419.443 823.041 421.704C823.723 423.923 824.065 426.248 824.065 428.68V428.808ZM814.593 425.16C814.294 422.984 813.526 421.235 812.289 419.912C811.051 418.547 809.409 417.864 807.361 417.864C805.313 417.864 803.649 418.525 802.369 419.848C801.131 421.171 800.321 422.941 799.937 425.16H814.593ZM850.067 434.568C850.067 436.488 849.725 438.152 849.043 439.56C848.403 440.925 847.485 442.056 846.291 442.952C845.096 443.848 843.688 444.531 842.067 445C840.488 445.427 838.781 445.64 836.947 445.64C834.515 445.64 832.019 445.235 829.459 444.424C826.941 443.571 824.531 442.248 822.227 440.456L826.387 434.056C828.264 435.421 830.12 436.445 831.955 437.128C833.832 437.811 835.581 438.152 837.203 438.152C838.611 438.152 839.635 437.917 840.275 437.448C840.957 436.979 841.299 436.36 841.299 435.592V435.464C841.299 434.952 841.107 434.504 840.723 434.12C840.339 433.736 839.805 433.416 839.123 433.16C838.483 432.861 837.736 432.584 836.883 432.328C836.029 432.072 835.133 431.795 834.195 431.496C833 431.155 831.784 430.749 830.547 430.28C829.352 429.768 828.264 429.128 827.283 428.36C826.301 427.549 825.491 426.568 824.851 425.416C824.253 424.264 823.955 422.856 823.955 421.192V421.064C823.955 419.315 824.275 417.779 824.915 416.456C825.597 415.091 826.493 413.939 827.603 413C828.755 412.061 830.077 411.357 831.571 410.888C833.107 410.419 834.749 410.184 836.499 410.184C838.675 410.184 840.872 410.547 843.091 411.272C845.352 411.955 847.421 412.915 849.299 414.152L845.587 420.872C843.88 419.891 842.216 419.123 840.595 418.568C838.973 417.971 837.544 417.672 836.307 417.672C835.112 417.672 834.216 417.907 833.619 418.376C833.021 418.803 832.723 419.357 832.723 420.04V420.168C832.723 420.637 832.915 421.064 833.299 421.448C833.683 421.789 834.195 422.131 834.835 422.472C835.475 422.771 836.2 423.069 837.01 423.368C837.864 423.667 838.76 423.965 839.699 424.264C840.893 424.648 842.109 425.117 843.347 425.672C844.584 426.184 845.693 426.824 846.675 427.592C847.656 428.36 848.467 429.299 849.107 430.408C849.747 431.517 850.067 432.861 850.067 434.44V434.568ZM861.072 406.92H850.832V398.28H861.072V406.92ZM860.816 445H851.088V410.696H860.816V445ZM898.048 437.256C898.048 440.499 897.643 443.251 896.832 445.512C896.064 447.816 894.869 449.693 893.248 451.144C891.669 452.595 889.685 453.661 887.296 454.344C884.907 455.027 882.112 455.368 878.912 455.368C876.096 455.368 873.408 455.048 870.848 454.408C868.288 453.811 865.92 452.936 863.744 451.784L867.072 444.488C868.864 445.469 870.656 446.237 872.448 446.792C874.283 447.347 876.352 447.624 878.656 447.624C881.984 447.624 884.437 446.835 886.016 445.256C887.637 443.677 888.448 441.352 888.448 438.28V436.616C886.997 438.365 885.419 439.731 883.712 440.712C882.005 441.693 879.851 442.184 877.248 442.184C875.243 442.184 873.323 441.843 871.488 441.16C869.653 440.435 868.032 439.389 866.624 438.024C865.216 436.659 864.085 434.995 863.232 433.032C862.421 431.027 862.016 428.744 862.016 426.184V426.056C862.016 423.496 862.443 421.235 863.296 419.272C864.149 417.267 865.28 415.581 866.688 414.216C868.096 412.851 869.717 411.827 871.552 411.144C873.387 410.419 875.285 410.056 877.248 410.056C879.893 410.056 882.069 410.547 883.776 411.528C885.483 412.509 886.997 413.725 888.32 415.176V410.696H898.048V437.256ZM888.448 426.184V426.056C888.448 424.904 888.235 423.837 887.808 422.856C887.381 421.875 886.784 421.043 886.016 420.36C885.291 419.635 884.416 419.08 883.392 418.696C882.368 418.312 881.259 418.12 880.064 418.12C878.869 418.12 877.76 418.312 876.736 418.696C875.755 419.08 874.88 419.635 874.112 420.36C873.387 421.043 872.811 421.875 872.384 422.856C871.957 423.837 871.744 424.904 871.744 426.056V426.184C871.744 428.573 872.533 430.493 874.112 431.944C875.691 433.395 877.675 434.12 880.064 434.12C881.259 434.12 882.368 433.928 883.392 433.544C884.416 433.16 885.291 432.627 886.016 431.944C886.784 431.219 887.381 430.365 887.808 429.384C888.235 428.403 888.448 427.336 888.448 426.184ZM931.764 445H922.036V425.864C922.036 423.56 921.524 421.832 920.5 420.68C919.476 419.485 918.025 418.888 916.148 418.888C914.27 418.888 912.777 419.485 911.668 420.68C910.601 421.832 910.068 423.56 910.068 425.864V445H900.34V410.696H910.068V415.56C910.622 414.835 911.22 414.152 911.86 413.512C912.542 412.829 913.289 412.232 914.1 411.72C914.91 411.208 915.806 410.803 916.788 410.504C917.769 410.205 918.878 410.056 920.116 410.056C923.828 410.056 926.686 411.187 928.692 413.448C930.74 415.709 931.764 418.824 931.764 422.792V445Z" fill="#7F43FE"/>
<path d="M986.986 437.768C985.834 439.005 984.639 440.115 983.402 441.096C982.165 442.077 980.799 442.931 979.306 443.656C977.855 444.339 976.255 444.851 974.506 445.192C972.757 445.576 970.794 445.768 968.618 445.768C965.333 445.768 962.282 445.171 959.466 443.976C956.65 442.781 954.218 441.16 952.17 439.112C950.122 437.021 948.522 434.568 947.37 431.752C946.218 428.936 945.642 425.928 945.642 422.728V422.6C945.642 419.4 946.218 416.413 947.37 413.64C948.522 410.824 950.122 408.371 952.17 406.28C954.218 404.147 956.671 402.483 959.53 401.288C962.389 400.051 965.546 399.432 969.002 399.432C971.093 399.432 972.991 399.603 974.698 399.944C976.447 400.285 978.026 400.755 979.434 401.352C980.842 401.949 982.143 402.675 983.338 403.528C984.533 404.381 985.642 405.32 986.666 406.344L980.394 413.576C978.645 411.997 976.853 410.76 975.018 409.864C973.226 408.968 971.199 408.52 968.938 408.52C967.061 408.52 965.311 408.883 963.69 409.608C962.111 410.333 960.746 411.336 959.594 412.616C958.442 413.896 957.546 415.389 956.906 417.096C956.266 418.76 955.946 420.552 955.946 422.472V422.6C955.946 424.52 956.266 426.333 956.906 428.04C957.546 429.747 958.421 431.24 959.53 432.52C960.682 433.8 962.047 434.824 963.626 435.592C965.247 436.317 967.018 436.68 968.938 436.68C971.498 436.68 973.653 436.211 975.402 435.272C977.194 434.333 978.965 433.053 980.714 431.432L986.986 437.768ZM1008.12 420.232H1007.61C1004.37 420.232 1001.81 421.213 999.932 423.176C998.097 425.139 997.18 428.189 997.18 432.328V445H987.452V410.696H997.18V417.608C998.161 415.261 999.505 413.384 1001.21 411.976C1002.92 410.568 1005.22 409.928 1008.12 410.056V420.232ZM1039.8 428.808C1039.8 429.277 1039.78 429.683 1039.74 430.024C1039.74 430.365 1039.72 430.771 1039.67 431.24H1015.8C1016.27 433.459 1017.23 435.144 1018.68 436.296C1020.18 437.405 1022.01 437.96 1024.19 437.96C1025.81 437.96 1027.26 437.683 1028.54 437.128C1029.82 436.573 1031.14 435.677 1032.51 434.44L1038.07 439.368C1036.45 441.373 1034.49 442.952 1032.19 444.104C1029.88 445.213 1027.17 445.768 1024.06 445.768C1021.5 445.768 1019.11 445.341 1016.89 444.488C1014.71 443.635 1012.82 442.419 1011.19 440.84C1009.62 439.261 1008.38 437.405 1007.48 435.272C1006.59 433.096 1006.14 430.685 1006.14 428.04V427.912C1006.14 425.48 1006.54 423.176 1007.35 421C1008.21 418.824 1009.38 416.925 1010.87 415.304C1012.37 413.683 1014.14 412.403 1016.19 411.464C1018.28 410.525 1020.58 410.056 1023.1 410.056C1025.96 410.056 1028.43 410.568 1030.52 411.592C1032.61 412.616 1034.34 414.003 1035.71 415.752C1037.11 417.459 1038.14 419.443 1038.78 421.704C1039.46 423.923 1039.8 426.248 1039.8 428.68V428.808ZM1030.33 425.16C1030.03 422.984 1029.26 421.235 1028.03 419.912C1026.79 418.547 1025.15 417.864 1023.1 417.864C1021.05 417.864 1019.39 418.525 1018.11 419.848C1016.87 421.171 1016.06 422.941 1015.67 425.16H1030.33ZM1070.16 445H1060.75V441.288C1059.55 442.611 1058.12 443.677 1056.46 444.488C1054.8 445.256 1052.77 445.64 1050.38 445.64C1048.76 445.64 1047.22 445.427 1045.77 445C1044.36 444.531 1043.13 443.848 1042.06 442.952C1040.99 442.056 1040.14 440.968 1039.5 439.688C1038.9 438.365 1038.6 436.851 1038.6 435.144V435.016C1038.6 433.139 1038.95 431.517 1039.63 430.152C1040.31 428.787 1041.25 427.656 1042.44 426.76C1043.68 425.864 1045.13 425.203 1046.8 424.776C1048.5 424.307 1050.38 424.072 1052.43 424.072C1054.18 424.072 1055.69 424.2 1056.97 424.456C1058.29 424.712 1059.57 425.053 1060.81 425.48V424.904C1060.81 422.856 1060.19 421.299 1058.96 420.232C1057.72 419.165 1055.88 418.632 1053.45 418.632C1051.57 418.632 1049.91 418.803 1048.46 419.144C1047.05 419.443 1045.56 419.891 1043.98 420.488L1041.55 413.064C1043.43 412.253 1045.39 411.592 1047.44 411.08C1049.48 410.568 1051.96 410.312 1054.86 410.312C1060.19 410.312 1064.08 411.613 1066.51 414.216C1068.94 416.819 1070.16 420.445 1070.16 425.096V445ZM1060.94 432.904V431.176C1060.09 430.792 1059.13 430.493 1058.06 430.28C1057.04 430.024 1055.93 429.896 1054.73 429.896C1052.64 429.896 1051 430.301 1049.8 431.112C1048.61 431.923 1048.01 433.096 1048.01 434.632V434.76C1048.01 436.083 1048.5 437.107 1049.48 437.832C1050.47 438.557 1051.75 438.92 1053.32 438.92C1055.63 438.92 1057.46 438.365 1058.83 437.256C1060.24 436.147 1060.94 434.696 1060.94 432.904ZM1091.39 443.592C1090.37 444.189 1089.24 444.659 1088 445C1086.76 445.384 1085.33 445.576 1083.71 445.576C1082.22 445.576 1080.85 445.405 1079.62 445.064C1078.42 444.765 1077.38 444.211 1076.48 443.4C1075.63 442.589 1074.94 441.544 1074.43 440.264C1073.96 438.941 1073.73 437.277 1073.73 435.272V419.016H1069.63V410.696H1073.73V401.928H1083.46V410.696H1091.52V419.016H1083.46V433.672C1083.46 435.891 1084.5 437 1086.59 437C1088.3 437 1089.9 436.595 1091.39 435.784V443.592ZM1102.72 406.92H1092.48V398.28H1102.72V406.92ZM1102.47 445H1092.74V410.696H1102.47V445ZM1140.66 427.912C1140.66 430.387 1140.19 432.712 1139.25 434.888C1138.31 437.021 1137.01 438.899 1135.35 440.52C1133.68 442.141 1131.72 443.421 1129.46 444.36C1127.2 445.299 1124.72 445.768 1122.03 445.768C1119.39 445.768 1116.94 445.32 1114.67 444.424C1112.41 443.485 1110.45 442.227 1108.79 440.648C1107.16 439.027 1105.88 437.149 1104.95 435.016C1104.01 432.84 1103.54 430.515 1103.54 428.04V427.912C1103.54 425.437 1104.01 423.133 1104.95 421C1105.88 418.824 1107.19 416.925 1108.85 415.304C1110.51 413.683 1112.48 412.403 1114.74 411.464C1117 410.525 1119.47 410.056 1122.16 410.056C1124.81 410.056 1127.26 410.525 1129.52 411.464C1131.78 412.36 1133.72 413.619 1135.35 415.24C1137.01 416.819 1138.31 418.696 1139.25 420.872C1140.19 423.005 1140.66 425.309 1140.66 427.784V427.912ZM1131.06 428.04V427.912C1131.06 426.632 1130.84 425.437 1130.42 424.328C1129.99 423.176 1129.37 422.173 1128.56 421.32C1127.75 420.424 1126.79 419.72 1125.68 419.208C1124.57 418.696 1123.36 418.44 1122.03 418.44C1120.63 418.44 1119.37 418.696 1118.26 419.208C1117.19 419.677 1116.27 420.339 1115.51 421.192C1114.74 422.045 1114.14 423.048 1113.71 424.2C1113.33 425.309 1113.14 426.504 1113.14 427.784V427.912C1113.14 429.192 1113.35 430.408 1113.78 431.56C1114.2 432.669 1114.82 433.672 1115.63 434.568C1116.44 435.421 1117.38 436.104 1118.45 436.616C1119.56 437.128 1120.8 437.384 1122.16 437.384C1123.57 437.384 1124.81 437.149 1125.87 436.68C1126.98 436.168 1127.92 435.485 1128.69 434.632C1129.46 433.779 1130.03 432.797 1130.42 431.688C1130.84 430.536 1131.06 429.32 1131.06 428.04ZM1172.73 445H1163V425.864C1163 423.56 1162.49 421.832 1161.46 420.68C1160.44 419.485 1158.99 418.888 1157.11 418.888C1155.23 418.888 1153.74 419.485 1152.63 420.68C1151.56 421.832 1151.03 423.56 1151.03 425.864V445H1141.3V410.696H1151.03V415.56C1151.58 414.835 1152.18 414.152 1152.82 413.512C1153.5 412.829 1154.25 412.232 1155.06 411.72C1155.87 411.208 1156.77 410.803 1157.75 410.504C1158.73 410.205 1159.84 410.056 1161.08 410.056C1164.79 410.056 1167.65 411.187 1169.65 413.448C1171.7 415.709 1172.73 418.824 1172.73 422.792V445ZM1199.93 434.568C1199.93 436.488 1199.59 438.152 1198.9 439.56C1198.26 440.925 1197.35 442.056 1196.15 442.952C1194.96 443.848 1193.55 444.531 1191.93 445C1190.35 445.427 1188.64 445.64 1186.81 445.64C1184.38 445.64 1181.88 445.235 1179.32 444.424C1176.8 443.571 1174.39 442.248 1172.09 440.456L1176.25 434.056C1178.13 435.421 1179.98 436.445 1181.82 437.128C1183.69 437.811 1185.44 438.152 1187.06 438.152C1188.47 438.152 1189.5 437.917 1190.14 437.448C1190.82 436.979 1191.16 436.36 1191.16 435.592V435.464C1191.16 434.952 1190.97 434.504 1190.58 434.12C1190.2 433.736 1189.67 433.416 1188.98 433.16C1188.34 432.861 1187.6 432.584 1186.74 432.328C1185.89 432.072 1185 431.795 1184.06 431.496C1182.86 431.155 1181.65 430.749 1180.41 430.28C1179.21 429.768 1178.13 429.128 1177.14 428.36C1176.16 427.549 1175.35 426.568 1174.71 425.416C1174.12 424.264 1173.82 422.856 1173.82 421.192V421.064C1173.82 419.315 1174.14 417.779 1174.78 416.456C1175.46 415.091 1176.36 413.939 1177.46 413C1178.62 412.061 1179.94 411.357 1181.43 410.888C1182.97 410.419 1184.61 410.184 1186.36 410.184C1188.54 410.184 1190.73 410.547 1192.95 411.272C1195.21 411.955 1197.28 412.915 1199.16 414.152L1195.45 420.872C1193.74 419.891 1192.08 419.123 1190.46 418.568C1188.84 417.971 1187.41 417.672 1186.17 417.672C1184.97 417.672 1184.08 417.907 1183.48 418.376C1182.88 418.803 1182.58 419.357 1182.58 420.04V420.168C1182.58 420.637 1182.78 421.064 1183.16 421.448C1183.54 421.789 1184.06 422.131 1184.7 422.472C1185.34 422.771 1186.06 423.069 1186.87 423.368C1187.73 423.667 1188.62 423.965 1189.56 424.264C1190.76 424.648 1191.97 425.117 1193.21 425.672C1194.45 426.184 1195.56 426.824 1196.54 427.592C1197.52 428.36 1198.33 429.299 1198.97 430.408C1199.61 431.517 1199.93 432.861 1199.93 434.44V434.568Z" fill="#FE4367"/>
<defs>
<linearGradient id="paint0_linear_24_117" x1="62.1905" y1="109.396" x2="62.1905" y2="233.777" gradientUnits="userSpaceOnUse">
<stop stop-color="#FE4367"/>
<stop offset="1" stop-color="#FE4367" stop-opacity="0.75"/>
</linearGradient>
<linearGradient id="paint1_linear_24_117" x1="1598.61" y1="254" x2="1598.61" y2="378.381" gradientUnits="userSpaceOnUse">
<stop stop-color="#FEE043"/>
<stop offset="1" stop-color="#FE4367" stop-opacity="0.75"/>
</linearGradient>
<linearGradient id="paint2_linear_24_117" x1="52.4776" y1="508" x2="52.4776" y2="584.955" gradientUnits="userSpaceOnUse">
<stop stop-color="#7F43FE"/>
<stop offset="1" stop-color="#FE4367" stop-opacity="0.75"/>
</linearGradient>
<linearGradient id="paint3_linear_24_117" x1="829.902" y1="137.804" x2="829.902" y2="2.12824e-05" gradientUnits="userSpaceOnUse">
<stop stop-color="#FF1F4A"/>
<stop offset="1" stop-color="#FFB800" stop-opacity="0.25"/>
</linearGradient>
</defs>
</svg>
